<svg xmlns="http://www.w3.org/2000/svg" viewBox="0 0 200 200" width="200" height="200">
  <defs>
    <linearGradient id="nodeGrad" x1="0%" y1="0%" x2="100%" y2="100%">
      <stop offset="0%" style="stop-color:#0086d4;stop-opacity:1" />
      <stop offset="100%" style="stop-color:#52b7df;stop-opacity:1" />
    </linearGradient>
    <filter id="glow" x="-50%" y="-50%" width="200%" height="200%">
      <feGaussianBlur stdDeviation="3" result="coloredBlur"/>
      <feMerge>
        <feMergeNode in="coloredBlur"/>
        <feMergeNode in="SourceGraphic"/>
      </feMerge>
    </filter>
    <filter id="softShadow" x="-50%" y="-50%" width="200%" height="200%">
      <feGaussianBlur in="SourceAlpha" stdDeviation="5" result="blur"/>
      <feOffset dx="0" dy="3" result="offsetBlur"/>
      <feComposite in="offsetBlur" in2="SourceAlpha" operator="out" result="shadow"/>
      <feFlood flood-color="#000000" flood-opacity="0.4" result="color"/>
      <feComposite in="color" in2="shadow" operator="in" result="coloredShadow"/>
      <feMerge>
        <feMergeNode in="coloredShadow"/>
        <feMergeNode in="SourceGraphic"/>
      </feMerge>
    </filter>
  </defs>#2d9ada

  <rect x="30" y="40" width="124" height="80" rx="7" ry="7" fill="#071e30" stroke="#005580" stroke-width="1.4" opacity="0.45"/>
  <rect x="42" y="55" width="124" height="80" rx="7" ry="7" fill="#0a3050" stroke="#0077aa" stroke-width="1.4" opacity="0.65"/>
  <rect x="54" y="70" width="124" height="80" rx="7" ry="7" fill="#0f3460" stroke="#00b4d4" stroke-width="2" filter="url(#softShadow)"/>

  <!-- Node Connections -->
  <line x1="90" y1="101" x2="112" y2="92" stroke="#0086d4" stroke-width="1.8" opacity="0.8"/>
  <line x1="90" y1="105" x2="112" y2="123" stroke="#0086d4" stroke-width="1.8" opacity="0.8"/>
  <line x1="135" y1="91" x2="158" y2="107" stroke="#0086d4" stroke-width="1.8" opacity="0.8"/>
  <line x1="135" y1="123" x2="158" y2="109" stroke="#0086d4" stroke-width="1.8" opacity="0.8"/>

  <!-- Nodes-->
  <rect x="64" y="94" width="28" height="18" rx="4" fill="url(#nodeGrad)" filter="url(#glow)" opacity="1"/>
  <rect x="110" y="84" width="28" height="18" rx="4" fill="url(#nodeGrad)" filter="url(#glow)" opacity="1"/>
  <rect x="110" y="112" width="28" height="18" rx="4" fill="url(#nodeGrad)" filter="url(#glow)" opacity="1"/>
  <rect x="154" y="98" width="28" height="18" rx="4" fill="url(#nodeGrad)" filter="url(#glow)" opacity="1"/>

</svg>